# xmcd
#
# Track frame offsets:
#	150
#	21411
#	41658
#	59828
#	76199
#	93943
#	108414
#	125383
#	142854
#	161139
#	176571
#	193630
#	209163
#	229410
#	248685
#	262568
#	280182
#	298094
#	315697
#	333928
#
# Disc length: 4664 seconds
#
# Revision: 1
# Processed by: cddbd v1.5.2PL0 Copyright (c) Steve Scherf et al.
# Submitted via: dBpowerAMP V4.0
#
DISCID=25123614
DTITLE=Various Artist - Hott Urban Volume 22 Can
DYEAR=2017
DGENRE=Urban
TTITLE0=DJ Khaled ft. Beyonce And Jay-Z - Shining
TTITLE1=Desiigner - Outlet
TTITLE2=Rick Ross ft. TY Dolla $ign - I Think She Like Me
TTITLE3=Jeremih ft. Chris Brown And Big Sean - I Think Of You
TTITLE4=Kehlani - Distraction
TTITLE5=Gucci Mane ft. Drake - Both
TTITLE6=2 Chainz X Gucci Mane X Quavo - Good Drank
TTITLE7=Lecrae ft. TY Dolla $ign - Blessings
TTITLE8=Migos - T-Shirt
TTITLE9=Yo Gotti - Blah Blah Blah
TTITLE10=Kyle ft. Lil Yachty - Ispy
TTITLE11=Jhene Aiko - Maniac
TTITLE12=Birdman X Young Thug - Bit Bak
TTITLE13=Tee Grizzley - First Day Out
TTITLE14=Kid Ink ft. 2 Chainz - Swish
TTITLE15=Keyshia Cole ft. French Montana And Remy Ma - You
TTITLE16=Jacquees - B.E.D.
TTITLE17=Fantasia - When I Met You
TTITLE18=Jahkoy ft. Schoolboy Q - California Heaven
TTITLE19=Johnny Gill ft. Jaheim - 5000 Miles
EXTD=
EXTT0=
EXTT1=
EXTT2=
EXTT3=
EXTT4=
EXTT5=
EXTT6=
EXTT7=
EXTT8=
EXTT9=
EXTT10=
EXTT11=
EXTT12=
EXTT13=
EXTT14=
EXTT15=
EXTT16=
EXTT17=
EXTT18=
EXTT19=
PLAYORDER=
